PathFileType	4	(x/y/z)	A01_STANDINGCAL_T0011.trc
DataRate	CameraRate	NumFrames	NumMarkers	Units	OrigDataRate	OrigDataStartFrame	OrigNumFrames
240	240	11	48	mm	240	901	1200
Frame#	Time	TOP_HEAD			R_AC			L_AC			R_ASIS			L_ASIS			R_PSIS			L_PSIS			SACRAL			L_IC			R_IC			L_GT			R_GT			R_LAT_KNEE			R_MED_KNEE			L_MED_KNEE			L_LAT_KNEE			R_TOE			L_TOE			R_1ST_MET			L_1ST_MET			L_5TH_MET			R_5TH_MET			R_LAT_ANK			R_MED_ANK			L_MED_ANK			L_LAT_ANK			L_HEEL_SUP			R_HEEL_SUP			L_HEEL_LAT			R_HEEL_LAT			L_HEEL_MED			R_HEEL_MED			R_LL_PROX_POST			R_LL_PROX_ANT			R_LL_DIST_ANT			R_LL_DIST_POST			R_THIGH_PROX_POST			R_THIGH_PROX_ANT			R_THIGH_DIST_ANT			R_THIGH_DIST_POST			L_PROS_PROX_ANT			L_PROS_PROX_POST			L_PROS_DIST_POST			L_PROS_DIST_ANT			L_THIGH_PROX_ANT			L_THIGH_PROX_POST			L_THIGH_DIST_POST			L_THIGH_DIST_ANT			
		X1	Y1	Z1	X2	Y2	Z2	X3	Y3	Z3	X4	Y4	Z4	X5	Y5	Z5	X6	Y6	Z6	X7	Y7	Z7	X8	Y8	Z8	X9	Y9	Z9	X10	Y10	Z10	X11	Y11	Z11	X12	Y12	Z12	X13	Y13	Z13	X14	Y14	Z14	X15	Y15	Z15	X16	Y16	Z16	X17	Y17	Z17	X18	Y18	Z18	X19	Y19	Z19	X20	Y20	Z20	X21	Y21	Z21	X22	Y22	Z22	X23	Y23	Z23	X24	Y24	Z24	X25	Y25	Z25	X26	Y26	Z26	X27	Y27	Z27	X28	Y28	Z28	X29	Y29	Z29	X30	Y30	Z30	X31	Y31	Z31	X32	Y32	Z32	X33	Y33	Z33	X34	Y34	Z34	X35	Y35	Z35	X36	Y36	Z36	X37	Y37	Z37	X38	Y38	Z38	X39	Y39	Z39	X40	Y40	Z40	X41	Y41	Z41	X42	Y42	Z42	X43	Y43	Z43	X44	Y44	Z44	X45	Y45	Z45	X46	Y46	Z46	X47	Y47	Z47	X48	Y48	Z48	

901	3.7531	583.8	1866.4	323.18	575.75	1594	489.67	592.61	1603.8	83.629	677.75	1094.3	486.12	709.52	1062.3	130.27	472.85	1100.2	339.61	491.12	1105.5	210.97	464.26	1075.1	270.89	667.9	1182.9	87.621	621.95	1196.9	497.01	645.22	972.22	82.106	604.25	986.34	515.65	547.65	581.23	468.65	598.05	569.99	344.94	603.88	558.82	303.66	592.29	575.74	146.01	774.8	72.829	452.97	776.8	85.547	172.52	697.96	57.647	395.37	695.89	57.186	225.23	670.08	50.702	95.06	651.46	45.993	523.63	526.36	110.98	475.94	565.45	117.39	378.68	565.17	126.68	208.41	540.05	122.92	141.06	453.77	73.304	173.2	448.38	69.395	408.29	466.09	45.584	142.67	452.1	45.401	443.16	472.29	44.808	206.19	462.83	43.317	381.87	515.7	399.77	499.94	451.65	404.55	465.48	471.75	323.68	467.71	523.5	324.01	490.96	547.05	862.83	492.69	615.68	876.58	512	613.03	784.95	506.7	547.5	773.14	488	637.53	492.77	155.3	583.59	493.57	141.81	577.11	430.6	145.7	629.53	437.27	157.96	687.08	822.4	124.79	620.47	834.29	101.07	621.93	759.01	116.66	683.32	749.19	137.43
902	3.7573	583.82	1866.4	323.17	575.76	1594	489.66	592.62	1603.8	83.619	677.74	1094.3	486.11	709.51	1062.3	130.27	472.84	1100.2	339.61	491.1	1105.5	210.97	464.25	1075.1	270.89	667.9	1182.9	87.614	621.95	1196.9	497.01	645.21	972.23	82.102	604.24	986.35	515.65	547.63	581.23	468.65	598.04	569.99	344.94	603.87	558.83	303.65	592.28	575.74	146.01	774.8	72.827	452.97	776.8	85.547	172.52	697.96	57.646	395.37	695.89	57.187	225.23	670.08	50.702	95.059	651.46	45.992	523.63	526.36	110.98	475.94	565.45	117.39	378.68	565.17	126.68	208.41	540.04	122.92	141.06	453.77	73.307	173.2	448.38	69.397	408.29	466.09	45.583	142.67	452.1	45.404	443.16	472.29	44.808	206.19	462.83	43.322	381.87	515.69	399.77	499.93	451.64	404.55	465.47	471.75	323.68	467.71	523.5	324.01	490.96	547.03	862.83	492.69	615.66	876.59	512	613.02	784.95	506.69	547.48	773.14	487.99	637.51	492.77	155.29	583.58	493.57	141.81	577.1	430.59	145.7	629.52	437.27	157.95	687.06	822.4	124.79	620.45	834.29	101.07	621.91	759.01	116.66	683.31	749.19	137.42
903	3.7615	583.83	1866.4	323.15	575.78	1594	489.65	592.62	1603.8	83.609	677.72	1094.3	486.11	709.5	1062.3	130.26	472.82	1100.2	339.61	491.08	1105.5	210.96	464.23	1075.1	270.88	667.9	1182.9	87.607	621.95	1196.9	497.01	645.19	972.23	82.1	604.23	986.35	515.66	547.61	581.23	468.64	598.03	569.99	344.94	603.86	558.83	303.65	592.27	575.74	146.01	774.8	72.825	452.97	776.8	85.547	172.52	697.96	57.645	395.37	695.89	57.187	225.23	670.08	50.702	95.059	651.46	45.991	523.63	526.36	110.98	475.93	565.46	117.39	378.68	565.16	126.68	208.41	540.04	122.92	141.06	453.77	73.31	173.19	448.38	69.4	408.29	466.09	45.582	142.67	452.1	45.408	443.16	472.29	44.809	206.19	462.83	43.329	381.87	515.68	399.78	499.93	451.63	404.55	465.47	471.74	323.68	467.7	523.49	324.01	490.96	547.01	862.83	492.68	615.64	876.59	511.99	613	784.95	506.69	547.46	773.14	487.99	637.5	492.77	155.29	583.57	493.57	141.8	577.09	430.59	145.7	629.51	437.27	157.95	687.05	822.4	124.78	620.44	834.29	101.07	621.9	759.02	116.66	683.29	749.19	137.42
904	3.7656	583.85	1866.4	323.14	575.8	1594.1	489.64	592.62	1603.8	83.598	677.71	1094.3	486.1	709.49	1062.3	130.26	472.81	1100.2	339.61	491.07	1105.5	210.96	464.22	1075.1	270.88	667.89	1182.9	87.601	621.95	1196.9	497.01	645.18	972.23	82.098	604.21	986.36	515.65	547.59	581.23	468.64	598.02	569.99	344.94	603.86	558.83	303.65	592.25	575.74	146.01	774.8	72.823	452.96	776.8	85.546	172.52	697.97	57.643	395.38	695.89	57.187	225.23	670.08	50.703	95.059	651.46	45.991	523.63	526.36	110.98	475.93	565.46	117.39	378.69	565.16	126.68	208.41	540.04	122.92	141.06	453.77	73.313	173.19	448.38	69.402	408.29	466.09	45.581	142.67	452.1	45.411	443.16	472.29	44.81	206.19	462.83	43.336	381.87	515.67	399.78	499.92	451.62	404.55	465.46	471.73	323.69	467.7	523.48	324.01	490.96	547	862.83	492.68	615.62	876.6	511.99	612.98	784.95	506.69	547.44	773.13	487.98	637.49	492.78	155.29	583.56	493.57	141.8	577.08	430.59	145.7	629.51	437.28	157.95	687.04	822.41	124.78	620.42	834.29	101.07	621.88	759.02	116.66	683.28	749.2	137.42
905	3.7698	583.86	1866.4	323.13	575.81	1594.1	489.63	592.62	1603.7	83.588	677.7	1094.3	486.1	709.48	1062.3	130.26	472.8	1100.2	339.61	491.05	1105.5	210.96	464.21	1075.1	270.88	667.89	1182.9	87.595	621.95	1197	497.01	645.17	972.23	82.097	604.19	986.36	515.65	547.57	581.23	468.64	598.01	569.99	344.94	603.85	558.83	303.64	592.24	575.74	146	774.8	72.82	452.96	776.8	85.546	172.52	697.97	57.642	395.38	695.89	57.186	225.23	670.08	50.703	95.059	651.46	45.99	523.63	526.36	110.99	475.93	565.46	117.39	378.69	565.16	126.68	208.4	540.04	122.92	141.06	453.77	73.314	173.19	448.38	69.404	408.29	466.09	45.58	142.67	452.1	45.414	443.16	472.29	44.81	206.19	462.83	43.344	381.87	515.66	399.78	499.92	451.61	404.55	465.46	471.73	323.69	467.7	523.47	324.02	490.95	546.98	862.84	492.67	615.6	876.61	511.99	612.97	784.95	506.68	547.42	773.13	487.98	637.48	492.78	155.29	583.54	493.57	141.8	577.07	430.58	145.7	629.5	437.28	157.95	687.02	822.41	124.78	620.41	834.29	101.07	621.87	759.02	116.66	683.26	749.2	137.42
906	3.774	583.88	1866.4	323.12	575.83	1594.1	489.61	592.63	1603.7	83.577	677.68	1094.3	486.1	709.47	1062.3	130.26	472.78	1100.2	339.61	491.04	1105.5	210.95	464.19	1075.1	270.87	667.9	1182.9	87.588	621.95	1197	497.01	645.15	972.23	82.096	604.18	986.36	515.65	547.55	581.23	468.63	597.99	569.99	344.93	603.84	558.83	303.64	592.23	575.74	146	774.8	72.817	452.96	776.8	85.545	172.52	697.97	57.64	395.38	695.89	57.186	225.23	670.08	50.703	95.059	651.46	45.989	523.62	526.36	110.99	475.93	565.46	117.4	378.69	565.16	126.68	208.4	540.04	122.92	141.05	453.77	73.316	173.19	448.38	69.405	408.28	466.09	45.579	142.67	452.1	45.417	443.16	472.29	44.811	206.2	462.83	43.353	381.86	515.65	399.78	499.91	451.6	404.56	465.45	471.72	323.69	467.69	523.46	324.02	490.95	546.96	862.84	492.67	615.58	876.61	511.99	612.95	784.96	506.68	547.4	773.13	487.97	637.47	492.78	155.28	583.53	493.57	141.8	577.06	430.58	145.7	629.49	437.28	157.95	687.01	822.41	124.78	620.4	834.3	101.07	621.86	759.02	116.66	683.25	749.2	137.43
907	3.7781	583.9	1866.4	323.11	575.84	1594.1	489.6	592.63	1603.7	83.566	677.67	1094.3	486.1	709.46	1062.3	130.26	472.77	1100.2	339.61	491.03	1105.5	210.95	464.18	1075.1	270.87	667.9	1182.9	87.582	621.95	1197	497.02	645.14	972.23	82.096	604.16	986.37	515.65	547.53	581.23	468.63	597.98	569.99	344.93	603.83	558.83	303.64	592.21	575.74	146	774.8	72.815	452.96	776.79	85.545	172.52	697.97	57.638	395.38	695.89	57.185	225.24	670.08	50.704	95.059	651.46	45.988	523.62	526.37	110.99	475.93	565.46	117.4	378.69	565.16	126.68	208.4	540.04	122.92	141.05	453.77	73.317	173.18	448.38	69.407	408.28	466.09	45.578	142.67	452.1	45.42	443.16	472.29	44.812	206.2	462.83	43.361	381.86	515.64	399.79	499.91	451.59	404.56	465.45	471.71	323.69	467.69	523.45	324.02	490.94	546.95	862.84	492.67	615.56	876.62	511.99	612.93	784.96	506.68	547.38	773.13	487.97	637.46	492.78	155.28	583.52	493.57	141.8	577.05	430.57	145.7	629.48	437.28	157.94	687	822.41	124.79	620.38	834.3	101.07	621.84	759.02	116.67	683.24	749.2	137.43
908	3.7823	583.91	1866.4	323.1	575.86	1594.1	489.59	592.63	1603.7	83.556	677.66	1094.3	486.09	709.45	1062.2	130.27	472.76	1100.2	339.6	491.01	1105.5	210.95	464.16	1075.1	270.86	667.9	1182.9	87.576	621.94	1197	497.02	645.13	972.23	82.096	604.13	986.36	515.64	547.51	581.23	468.63	597.97	569.99	344.93	603.83	558.84	303.64	592.2	575.74	146	774.8	72.812	452.96	776.79	85.544	172.52	697.97	57.636	395.38	695.88	57.184	225.24	670.08	50.704	95.06	651.46	45.988	523.62	526.37	110.99	475.93	565.46	117.4	378.69	565.16	126.68	208.4	540.04	122.92	141.05	453.77	73.318	173.18	448.38	69.408	408.28	466.09	45.577	142.67	452.1	45.423	443.16	472.29	44.812	206.2	462.83	43.37	381.86	515.63	399.79	499.9	451.58	404.56	465.44	471.71	323.69	467.69	523.44	324.03	490.94	546.93	862.84	492.66	615.54	876.63	511.98	612.91	784.96	506.68	547.37	773.13	487.96	637.45	492.78	155.28	583.51	493.57	141.8	577.03	430.57	145.7	629.47	437.28	157.94	686.99	822.41	124.79	620.37	834.3	101.08	621.83	759.02	116.67	683.22	749.2	137.43
909	3.7865	583.93	1866.4	323.09	575.87	1594.1	489.58	592.63	1603.7	83.545	677.64	1094.4	486.09	709.44	1062.2	130.27	472.75	1100.2	339.6	491	1105.5	210.94	464.15	1075.2	270.86	667.9	1182.9	87.57	621.94	1197	497.02	645.12	972.23	82.097	604.11	986.36	515.63	547.49	581.23	468.63	597.96	569.99	344.93	603.82	558.84	303.64	592.19	575.74	146	774.8	72.809	452.96	776.79	85.544	172.52	697.97	57.634	395.38	695.88	57.184	225.24	670.08	50.704	95.06	651.46	45.987	523.62	526.37	110.99	475.93	565.46	117.4	378.69	565.16	126.68	208.4	540.04	122.92	141.05	453.77	73.319	173.18	448.38	69.41	408.28	466.09	45.576	142.67	452.1	45.425	443.16	472.29	44.812	206.2	462.83	43.379	381.86	515.63	399.79	499.9	451.57	404.56	465.44	471.7	323.69	467.69	523.43	324.03	490.93	546.91	862.84	492.66	615.52	876.63	511.98	612.89	784.96	506.68	547.35	773.13	487.96	637.44	492.78	155.28	583.5	493.57	141.8	577.02	430.56	145.7	629.46	437.28	157.95	686.98	822.41	124.79	620.36	834.3	101.08	621.82	759.02	116.67	683.21	749.21	137.44
910	3.7907	583.94	1866.4	323.08	575.89	1594.1	489.57	592.64	1603.7	83.535	677.63	1094.4	486.09	709.43	1062.2	130.27	472.73	1100.2	339.6	490.99	1105.5	210.94	464.14	1075.2	270.86	667.91	1182.9	87.564	621.94	1197	497.03	645.11	972.23	82.099	604.09	986.36	515.62	547.47	581.23	468.63	597.95	569.99	344.93	603.81	558.84	303.64	592.17	575.74	146.01	774.81	72.805	452.96	776.79	85.543	172.52	697.98	57.632	395.38	695.88	57.183	225.24	670.08	50.705	95.06	651.46	45.987	523.62	526.37	111	475.93	565.46	117.4	378.7	565.16	126.68	208.4	540.04	122.92	141.05	453.77	73.32	173.18	448.39	69.411	408.28	466.09	45.576	142.67	452.1	45.427	443.16	472.29	44.812	206.2	462.82	43.388	381.85	515.62	399.79	499.89	451.55	404.56	465.44	471.69	323.69	467.68	523.41	324.04	490.92	546.89	862.84	492.66	615.5	876.64	511.99	612.87	784.96	506.68	547.33	773.13	487.96	637.43	492.79	155.28	583.49	493.57	141.8	577.01	430.56	145.71	629.45	437.28	157.95	686.97	822.41	124.8	620.35	834.3	101.08	621.81	759.02	116.68	683.2	749.21	137.44
911	3.7948	583.96	1866.5	323.08	575.9	1594.1	489.55	592.64	1603.7	83.524	677.61	1094.4	486.09	709.42	1062.2	130.28	472.72	1100.2	339.6	490.98	1105.5	210.93	464.13	1075.2	270.85	667.92	1182.9	87.559	621.93	1197	497.03	645.1	972.23	82.102	604.06	986.35	515.61	547.45	581.23	468.63	597.94	569.99	344.93	603.81	558.84	303.64	592.16	575.75	146.01	774.81	72.802	452.96	776.79	85.543	172.52	697.98	57.63	395.38	695.88	57.182	225.24	670.08	50.705	95.061	651.46	45.987	523.62	526.37	111	475.93	565.46	117.4	378.7	565.16	126.68	208.41	540.04	122.92	141.05	453.78	73.321	173.18	448.39	69.412	408.28	466.09	45.575	142.67	452.1	45.429	443.16	472.28	44.812	206.2	462.82	43.397	381.85	515.61	399.8	499.89	451.54	404.56	465.44	471.68	323.69	467.68	523.4	324.05	490.9	546.87	862.84	492.65	615.48	876.65	511.99	612.86	784.97	506.68	547.31	773.13	487.96	637.42	492.79	155.29	583.48	493.57	141.8	577	430.55	145.71	629.45	437.28	157.95	686.96	822.41	124.81	620.34	834.3	101.09	621.8	759.03	116.68	683.19	749.21	137.45
